# xmcd
#
# Track frame offsets:
#	150
#	12953
#	26313
#	41933
#	55145
#	67570
#
# Disc length: 1106 seconds
#
# Revision: 1
# Processed by: cddbd v1.4PL0 Copyright (c) Steve Scherf et al.
# Submitted via: audiograbber 1.81.03
#
DISCID=3f045006
DTITLE=The Morris Sisters - Someday...You're Gonna Love Me
DYEAR=1993
DGENRE=Blues
TTITLE0=Someday You're Gonna Love Me
TTITLE1=Baby Where Have You Been
TTITLE2=It's Hold Me Time
TTITLE3=If I Can't Be Number One
TTITLE4=I Want To Be A Cowboy's Sweetheart
TTITLE5=Waltz Across Texas
EXTD=
EXTT0=
EXTT1=
EXTT2=
EXTT3=
EXTT4=
EXTT5=
PLAYORDER=
